<mxfile host="app.diagrams.net" modified="2024-06-03T07:40:30.970Z" agent="Mozilla/5.0 (Macintosh; Intel Mac OS X 10_15_7) AppleWebKit/605.1.15 (KHTML, like Gecko) Version/15.6.1 Safari/605.1.15" version="24.4.9" etag="rnSicEoD4W93gcs_IKs5" type="github">
  <diagram name="Page-1" id="lnTLz7VwYrqn9o104ecc">
    <mxGraphModel>
      <root>
        <mxCell id="0" />
        <mxCell id="1" parent="0" />
      </root>
    </mxGraphModel>
  </diagram>
</mxfile>
